<svg id="visual" viewBox="0 0 1920 1080" width="1920" height="1080" xmlns="http://www.w3.org/2000/svg" xmlns:xlink="http://www.w3.org/1999/xlink" version="1.1"><rect x="0" y="0" width="1920" height="1080" fill="#191919"></rect><defs><linearGradient id="grad1_0" x1="43.8%" y1="0%" x2="100%" y2="100%"><stop offset="14.444444444444446%" stop-color="#191919" stop-opacity="1"></stop><stop offset="85.55555555555554%" stop-color="#191919" stop-opacity="1"></stop></linearGradient></defs><defs><linearGradient id="grad2_0" x1="0%" y1="0%" x2="56.3%" y2="100%"><stop offset="14.444444444444446%" stop-color="#191919" stop-opacity="1"></stop><stop offset="85.55555555555554%" stop-color="#191919" stop-opacity="1"></stop></linearGradient></defs><g transform="translate(1920, 0)"><path d="M0 594C-59.3 502.2 -118.6 410.4 -215 372.4C-311.4 334.4 -445.1 350.1 -514.4 297C-583.8 243.9 -588.9 121.9 -594 0L0 0Z" fill="#715DF2"></path></g><g transform="translate(0, 1080)"><path d="M0 -594C121.8 -588.8 243.7 -583.6 297 -514.4C350.3 -445.2 335.2 -311.9 373.3 -215.5C411.3 -119.1 502.7 -59.5 594 0L0 0Z" fill="#715DF2"></path></g></svg>