<svg id="visual" viewBox="0 0 1920 1080" width="1920" height="1080" xmlns="http://www.w3.org/2000/svg" xmlns:xlink="http://www.w3.org/1999/xlink" version="1.1"><rect x="0" y="0" width="1920" height="1080" fill="#191919"></rect><defs><linearGradient id="grad1_0" x1="43.8%" y1="0%" x2="100%" y2="100%"><stop offset="14.444444444444446%" stop-color="#191919" stop-opacity="1"></stop><stop offset="85.55555555555554%" stop-color="#191919" stop-opacity="1"></stop></linearGradient></defs><defs><linearGradient id="grad2_0" x1="0%" y1="0%" x2="56.3%" y2="100%"><stop offset="14.444444444444446%" stop-color="#191919" stop-opacity="1"></stop><stop offset="85.55555555555554%" stop-color="#191919" stop-opacity="1"></stop></linearGradient></defs><g transform="translate(1920, 0)"><path d="M0 540C-99.2 528.6 -198.4 517.2 -270 467.7C-341.6 418.1 -385.7 330.3 -426.1 246C-466.5 161.7 -503.2 80.8 -540 0L0 0Z" fill="#715DF2"></path></g><g transform="translate(0, 1080)"><path d="M0 -540C69.6 -483.8 139.3 -427.7 225 -389.7C310.7 -351.7 412.5 -331.9 467.7 -270C522.8 -208.1 531.4 -104 540 0L0 0Z" fill="#715DF2"></path></g></svg>