<svg id="visual" viewBox="0 0 1920 1080" width="1920" height="1080" xmlns="http://www.w3.org/2000/svg" xmlns:xlink="http://www.w3.org/1999/xlink" version="1.1"><rect x="0" y="0" width="1920" height="1080" fill="#191919"></rect><defs><linearGradient id="grad1_0" x1="43.8%" y1="0%" x2="100%" y2="100%"><stop offset="14.444444444444446%" stop-color="#191919" stop-opacity="1"></stop><stop offset="85.55555555555554%" stop-color="#191919" stop-opacity="1"></stop></linearGradient></defs><defs><linearGradient id="grad2_0" x1="0%" y1="0%" x2="56.3%" y2="100%"><stop offset="14.444444444444446%" stop-color="#191919" stop-opacity="1"></stop><stop offset="85.55555555555554%" stop-color="#191919" stop-opacity="1"></stop></linearGradient></defs><g transform="translate(1920, 0)"><path d="M0 594C-69.5 566 -139 538.1 -212.8 513.7C-286.6 489.3 -364.7 468.5 -420 420C-475.3 371.6 -507.9 295.4 -533.1 220.8C-558.3 146.2 -576.1 73.1 -594 0L0 0Z" fill="#715DF2"></path></g><g transform="translate(0, 1080)"><path d="M0 -594C78 -587.4 156 -580.8 227.3 -548.8C298.6 -516.8 363.2 -459.4 393.2 -393.2C423.1 -326.9 418.5 -251.8 446.2 -184.8C473.9 -117.8 534 -58.9 594 0L0 0Z" fill="#715DF2"></path></g></svg>