<svg id="visual" viewBox="0 0 1920 1080" width="1920" height="1080" xmlns="http://www.w3.org/2000/svg" xmlns:xlink="http://www.w3.org/1999/xlink" version="1.1"><rect x="0" y="0" width="1920" height="1080" fill="#191919"></rect><defs><linearGradient id="grad1_0" x1="43.8%" y1="100%" x2="100%" y2="0%"><stop offset="14.444444444444446%" stop-color="#191919" stop-opacity="1"></stop><stop offset="85.55555555555554%" stop-color="#191919" stop-opacity="1"></stop></linearGradient></defs><defs><linearGradient id="grad2_0" x1="0%" y1="100%" x2="56.3%" y2="0%"><stop offset="14.444444444444446%" stop-color="#191919" stop-opacity="1"></stop><stop offset="85.55555555555554%" stop-color="#191919" stop-opacity="1"></stop></linearGradient></defs><g transform="translate(1920, 1080)"><path d="M-648 0C-565.4 -74.8 -482.7 -149.6 -439.1 -253.5C-395.4 -357.4 -390.7 -490.6 -324 -561.2C-257.3 -631.8 -128.7 -639.9 0 -648L0 0Z" fill="#715DF2"></path></g><g transform="translate(0, 0)"><path d="M648 0C636.6 123 625.3 246 561.2 324C497.1 402 380.3 435 278 481.5C175.7 528 87.8 588 0 648L0 0Z" fill="#715DF2"></path></g></svg>