<svg id="visual" viewBox="0 0 1920 1080" width="1920" height="1080" xmlns="http://www.w3.org/2000/svg" xmlns:xlink="http://www.w3.org/1999/xlink" version="1.1"><rect x="0" y="0" width="1920" height="1080" fill="#191919"></rect><defs><linearGradient id="grad1_0" x1="43.8%" y1="100%" x2="100%" y2="0%"><stop offset="14.444444444444446%" stop-color="#191919" stop-opacity="1"></stop><stop offset="85.55555555555554%" stop-color="#191919" stop-opacity="1"></stop></linearGradient></defs><defs><linearGradient id="grad2_0" x1="0%" y1="100%" x2="56.3%" y2="0%"><stop offset="14.444444444444446%" stop-color="#191919" stop-opacity="1"></stop><stop offset="85.55555555555554%" stop-color="#191919" stop-opacity="1"></stop></linearGradient></defs><g transform="translate(1920, 1080)"><path d="M-594 0C-566 -69.5 -538.1 -139 -513.7 -212.8C-489.3 -286.6 -468.5 -364.7 -420 -420C-371.6 -475.3 -295.4 -507.9 -220.8 -533.1C-146.2 -558.3 -73.1 -576.1 0 -594L0 0Z" fill="#715DF2"></path></g><g transform="translate(0, 0)"><path d="M594 0C587.4 78 580.8 156 548.8 227.3C516.8 298.6 459.4 363.2 393.2 393.2C326.9 423.1 251.8 418.5 184.8 446.2C117.8 473.9 58.9 534 0 594L0 0Z" fill="#715DF2"></path></g></svg>