<svg id="visual" viewBox="0 0 1920 1080" width="1920" height="1080" xmlns="http://www.w3.org/2000/svg" xmlns:xlink="http://www.w3.org/1999/xlink" version="1.1"><rect x="0" y="0" width="1920" height="1080" fill="#191919"></rect><defs><linearGradient id="grad1_0" x1="43.8%" y1="100%" x2="100%" y2="0%"><stop offset="14.444444444444446%" stop-color="#191919" stop-opacity="1"></stop><stop offset="85.55555555555554%" stop-color="#191919" stop-opacity="1"></stop></linearGradient></defs><defs><linearGradient id="grad2_0" x1="0%" y1="100%" x2="56.3%" y2="0%"><stop offset="14.444444444444446%" stop-color="#191919" stop-opacity="1"></stop><stop offset="85.55555555555554%" stop-color="#191919" stop-opacity="1"></stop></linearGradient></defs><g transform="translate(1920, 1080)"><path d="M-540 0C-528.6 -99.2 -517.2 -198.4 -467.7 -270C-418.1 -341.6 -330.3 -385.7 -246 -426.1C-161.7 -466.5 -80.8 -503.2 0 -540L0 0Z" fill="#715DF2"></path></g><g transform="translate(0, 0)"><path d="M540 0C483.8 69.6 427.7 139.3 389.7 225C351.7 310.7 331.9 412.5 270 467.7C208.1 522.8 104 531.4 0 540L0 0Z" fill="#715DF2"></path></g></svg>