<svg id="visual" viewBox="0 0 1920 1080" width="1920" height="1080" xmlns="http://www.w3.org/2000/svg" xmlns:xlink="http://www.w3.org/1999/xlink" version="1.1"><rect x="0" y="0" width="1920" height="1080" fill="#191919"></rect><defs><linearGradient id="grad1_0" x1="43.8%" y1="100%" x2="100%" y2="0%"><stop offset="14.444444444444446%" stop-color="#191919" stop-opacity="1"></stop><stop offset="85.55555555555554%" stop-color="#191919" stop-opacity="1"></stop></linearGradient></defs><defs><linearGradient id="grad2_0" x1="0%" y1="100%" x2="56.3%" y2="0%"><stop offset="14.444444444444446%" stop-color="#191919" stop-opacity="1"></stop><stop offset="85.55555555555554%" stop-color="#191919" stop-opacity="1"></stop></linearGradient></defs><g transform="translate(1920, 1080)"><path d="M-756 0C-729.1 -127.4 -702.2 -254.7 -642.6 -371C-583 -487.3 -490.6 -592.4 -378 -654.7C-265.4 -717 -132.7 -736.5 0 -756L0 0Z" fill="#715DF2"></path></g><g transform="translate(0, 0)"><path d="M756 0C743.1 144.2 730.2 288.3 654.7 378C579.2 467.7 441.1 502.9 321.5 556.9C201.9 610.8 101 683.4 0 756L0 0Z" fill="#715DF2"></path></g></svg>