<svg id="visual" viewBox="0 0 1920 969" width="1920" height="969" xmlns="http://www.w3.org/2000/svg" xmlns:xlink="http://www.w3.org/1999/xlink" version="1.1"><rect x="0" y="0" width="1920" height="969" fill="#191919"></rect><defs><linearGradient id="grad1_0" x1="49.5%" y1="100%" x2="100%" y2="0%"><stop offset="10.371517027863776%" stop-color="#191919" stop-opacity="1"></stop><stop offset="89.62848297213623%" stop-color="#191919" stop-opacity="1"></stop></linearGradient></defs><defs><linearGradient id="grad2_0" x1="0%" y1="100%" x2="50.5%" y2="0%"><stop offset="10.371517027863776%" stop-color="#191919" stop-opacity="1"></stop><stop offset="89.62848297213623%" stop-color="#191919" stop-opacity="1"></stop></linearGradient></defs><g transform="translate(1920, 969)"><path d="M-532.9 0C-472.9 -66 -412.8 -132.1 -375.9 -217C-339 -301.9 -325.3 -405.7 -266.5 -461.5C-207.7 -517.4 -103.8 -525.2 0 -532.9L0 0Z" fill="#715DF2"></path></g><g transform="translate(0, 0)"><path d="M533 0C527.7 108.2 522.4 216.5 461.5 266.5C400.7 316.5 284.2 308.2 198 342.9C111.8 377.7 55.9 455.3 0 533L0 0Z" fill="#715DF2"></path></g></svg>