<svg id="visual" viewBox="0 0 1920 1080" width="1920" height="1080" xmlns="http://www.w3.org/2000/svg" xmlns:xlink="http://www.w3.org/1999/xlink" version="1.1"><rect x="0" y="0" width="1920" height="1080" fill="#191919"></rect><defs><linearGradient id="grad1_0" x1="43.8%" y1="100%" x2="100%" y2="0%"><stop offset="14.444444444444446%" stop-color="#191919" stop-opacity="1"></stop><stop offset="85.55555555555554%" stop-color="#191919" stop-opacity="1"></stop></linearGradient></defs><defs><linearGradient id="grad2_0" x1="0%" y1="100%" x2="56.3%" y2="0%"><stop offset="14.444444444444446%" stop-color="#191919" stop-opacity="1"></stop><stop offset="85.55555555555554%" stop-color="#191919" stop-opacity="1"></stop></linearGradient></defs><g transform="translate(1920, 1080)"><path d="M-594 0C-581.3 -108.8 -568.6 -217.6 -514.4 -297C-460.3 -376.4 -364.6 -426.5 -272 -471.1C-179.4 -515.7 -89.7 -554.9 0 -594L0 0Z" fill="#715DF2"></path></g><g transform="translate(0, 0)"><path d="M594 0C585.7 116.4 577.4 232.8 514.4 297C451.5 361.2 333.8 373.2 239 414C144.2 454.8 72.1 524.4 0 594L0 0Z" fill="#715DF2"></path></g></svg>