<svg id="visual" viewBox="0 0 1920 1080" width="1920" height="1080" xmlns="http://www.w3.org/2000/svg" xmlns:xlink="http://www.w3.org/1999/xlink" version="1.1"><rect x="0" y="0" width="1920" height="1080" fill="#191919"></rect><defs><linearGradient id="grad1_0" x1="43.8%" y1="100%" x2="100%" y2="0%"><stop offset="14.444444444444446%" stop-color="#191919" stop-opacity="1"></stop><stop offset="85.55555555555554%" stop-color="#191919" stop-opacity="1"></stop></linearGradient></defs><defs><linearGradient id="grad2_0" x1="0%" y1="100%" x2="56.3%" y2="0%"><stop offset="14.444444444444446%" stop-color="#191919" stop-opacity="1"></stop><stop offset="85.55555555555554%" stop-color="#191919" stop-opacity="1"></stop></linearGradient></defs><g transform="translate(1920, 1080)"><path d="M-594 0C-583 -111.7 -571.9 -223.3 -514.4 -297C-456.9 -370.7 -353 -406.3 -259.5 -449.5C-166 -492.6 -83 -543.3 0 -594L0 0Z" fill="#715DF2"></path></g><g transform="translate(0, 0)"><path d="M594 0C577 102.5 560.1 205 512.7 296C465.3 387 387.5 466.7 297 514.4C206.5 562.2 103.2 578.1 0 594L0 0Z" fill="#715DF2"></path></g></svg>